<svg width="128" height="136" viewBox="0 0 128 136" fill="none" xmlns="http://www.w3.org/2000/svg">
<path d="M40.212 97.6564C40.212 110.76 50.7183 121.289 63.5511 121.289C76.3838 121.289 86.9651 110.685 86.9651 97.6564" stroke="#F1A605" stroke-width="2" stroke-miterlimit="10"/>
<path d="M82.6646 18.8523C96.9164 19.9245 108.158 32.0757 108.158 46.6392V66.5636C116.391 66.5636 123.118 73.354 123.118 81.7526V97.5671C123.118 97.5671 123.118 97.6564 123.03 97.6564H4.14735C4.14735 97.6564 3.97031 97.6564 3.97031 97.5671V81.7526C3.97031 73.354 10.7864 66.5636 19.0187 66.5636H19.8154V46.6392C19.8154 32.3437 30.6148 20.3712 44.424 18.8523C46.9025 10.543 54.6038 4.46741 63.6328 4.46741C72.6619 4.46741 80.2746 10.543 82.6646 18.8523Z" stroke="#F1A605" stroke-width="2" stroke-miterlimit="10"/>
<path d="M19.8154 66.5636H108.158" stroke="#F1A605" stroke-width="2" stroke-miterlimit="10"/>
</svg>
