<svg width="246" height="160" viewBox="0 0 246 160" fill="none" xmlns="http://www.w3.org/2000/svg">
<path d="M39.0614 102.062C40.0892 101.976 41.6308 106.104 41.6308 106.104V106.964C45.0566 120.725 53.3643 131.991 70.6648 131.991C87.9653 131.991 97.1294 119.005 101.155 105.416C101.155 104.04 102.182 101.976 102.868 102.148C110.918 103.954 112.289 88.0433 112.289 81.2489C112.289 75.4006 107.064 78.0668 104.238 77.8948C107.749 53.1255 98.7567 35.4946 71.6069 35.4946C44.4571 35.4946 36.0638 53.2115 38.1193 77.6368C34.2652 76.8627 29.1265 77.6368 29.1265 84.1731C29.1265 90.9674 31.0963 103.266 39.1471 102.234L39.0614 102.062Z" stroke="#F2A605" stroke-width="2" stroke-miterlimit="10"/>
<path d="M135.327 155.901C131.045 145.924 121.11 138.872 109.634 138.872C109.634 138.872 92.5045 137.152 92.5045 136.206V122.703" stroke="#F2A605" stroke-width="2" stroke-miterlimit="10"/>
<path d="M49.8528 122.703V135.633C49.8528 136.533 33.0448 138.17 33.0448 138.17C20.8208 138.17 10.5493 145.945 6.89909 156.502" stroke="#F2A605" stroke-width="2" stroke-miterlimit="10"/>
<path d="M140.381 102.062C141.408 101.976 142.95 106.104 142.95 106.104V106.964C146.376 120.725 154.683 131.991 171.984 131.991C189.284 131.991 198.449 119.005 202.474 105.416C202.474 104.04 203.502 101.976 204.187 102.148C212.238 103.954 213.608 88.0433 213.608 81.2489C213.608 75.4006 208.383 78.0668 205.557 77.8948C209.069 53.1255 200.076 35.4946 172.926 35.4946C145.776 35.4946 137.383 53.2115 139.438 77.6368C135.584 76.8627 130.446 77.6368 130.446 84.1731C130.446 90.9674 132.416 103.266 140.466 102.234L140.381 102.062Z" stroke="#F2A605" stroke-width="2" stroke-miterlimit="10"/>
<path d="M236.647 155.901C232.364 145.924 222.429 138.872 210.953 138.872C210.953 138.872 193.824 137.152 193.824 136.206V122.703" stroke="#F2A605" stroke-width="2" stroke-miterlimit="10"/>
<path d="M151.172 122.703V135.648C151.172 136.549 134.481 138.187 134.481 138.187C122.343 138.187 112.143 145.97 108.518 156.539" stroke="#F2A605" stroke-width="2" stroke-miterlimit="10"/>
<path d="M18.7633 66.7141H221.316" stroke="#F2A605" stroke-width="2" stroke-miterlimit="10"/>
<path d="M18.7633 107.91H221.316" stroke="#F2A605" stroke-width="2" stroke-miterlimit="10"/>
<path d="M6.4303 155.901H236.647" stroke="#F2A605" stroke-width="2" stroke-miterlimit="10"/>
<path d="M112.203 23.196L122.224 33.2585L143.549 11.8434" stroke="#F2A605" stroke-width="2" stroke-miterlimit="10"/>
</svg>
