<svg width="212" height="112" viewBox="0 0 212 112" fill="none" xmlns="http://www.w3.org/2000/svg">
<path d="M19.8253 98.2441V14.781C19.6114 8.44271 24.746 3.16968 31.1107 3.16968H180.923C186.967 3.16968 191.995 7.96334 192.209 13.9821V98.2441" stroke="#F1A605" stroke-width="2" stroke-miterlimit="10"/>
<path d="M203.548 98.244H8.4864C5.56202 98.244 3.19135 100.605 3.19135 103.517C3.19135 106.429 5.56202 108.79 8.4864 108.79H203.548C206.472 108.79 208.843 106.429 208.843 103.517C208.843 100.605 206.472 98.244 203.548 98.244Z" stroke="#F1A605" stroke-width="2" stroke-miterlimit="10"/>
<path d="M31.9665 98.244V17.0712C31.9665 15.3668 33.3571 13.9287 35.1221 13.9287H176.965C178.677 13.9287 180.121 15.3135 180.121 17.0712V98.244" stroke="#F1A605" stroke-width="2" stroke-miterlimit="10"/>
<path d="M65.1275 29.162H147.495C152.523 29.162 156.641 33.21 156.641 38.27V77.4182C156.641 80.5607 154.074 83.0641 150.972 83.0641H61.0626C57.9069 83.0641 55.3931 80.5075 55.3931 77.4182V38.8558C55.3931 33.5295 59.7789 29.162 65.1275 29.162Z" stroke="#F1A605" stroke-width="2" stroke-miterlimit="10"/>
<path d="M78.0709 62.2915C84.3923 62.2915 89.5168 57.1884 89.5168 50.8933C89.5168 44.5982 84.3923 39.495 78.0709 39.495C71.7496 39.495 66.6251 44.5982 66.6251 50.8933C66.6251 57.1884 71.7496 62.2915 78.0709 62.2915Z" stroke="#F1A605" stroke-width="2" stroke-miterlimit="10"/>
<path d="M86.7356 58.5631V74.1692L77.75 68.4168L68.7645 74.1692V58.5631" stroke="#F1A605" stroke-width="2" stroke-miterlimit="10"/>
<path d="M101.498 42.744H144.125" stroke="#F1A605" stroke-width="2" stroke-miterlimit="10"/>
<path d="M101.498 52.7042H144.125" stroke="#F1A605" stroke-width="2" stroke-miterlimit="10"/>
<path d="M101.498 62.2915H144.125" stroke="#F1A605" stroke-width="2" stroke-miterlimit="10"/>
<path d="M101.498 71.8788H144.125" stroke="#F1A605" stroke-width="2" stroke-miterlimit="10"/>
</svg>
