<svg width="117" height="117" viewBox="0 0 117 117" fill="none" xmlns="http://www.w3.org/2000/svg">
<g clip-path="url(#clip0_287_83)">
<path d="M57.7027 35.3962V16.8466" stroke="#F1A605" stroke-width="2" stroke-miterlimit="10"/>
<path d="M48.3946 50.1323H66.9737" stroke="#F1A605" stroke-width="2" stroke-miterlimit="10"/>
<path d="M48.3946 59.0924H66.9737" stroke="#F1A605" stroke-width="2" stroke-miterlimit="10"/>
<path d="M48.3946 68.2007H66.9737" stroke="#F1A605" stroke-width="2" stroke-miterlimit="10"/>
<path d="M57.7027 79.6415V98.4503V99.5611" stroke="#F1A605" stroke-width="2" stroke-miterlimit="10"/>
<path d="M36.194 59.1665H16.762" stroke="#F1A605" stroke-width="2" stroke-miterlimit="10"/>
<path d="M99.2368 59.1665H79.3597" stroke="#F1A605" stroke-width="2" stroke-miterlimit="10"/>
<path d="M57.6656 80.3449C70.0156 80.3449 80.0273 70.3491 80.0273 58.0186C80.0273 45.6882 70.0156 35.6924 57.6656 35.6924C45.3156 35.6924 35.304 45.6882 35.304 58.0186C35.304 70.3491 45.3156 80.3449 57.6656 80.3449Z" stroke="#F1A605" stroke-width="2" stroke-miterlimit="10"/>
<path d="M10.9769 42.5421C15.8349 27.9171 27.368 16.3652 41.9791 11.4408" stroke="#F1A605" stroke-width="2" stroke-miterlimit="10"/>
<path d="M43.0916 104.93C28.7772 100.487 17.2811 89.7493 11.8669 75.9019" stroke="#F1A605" stroke-width="2" stroke-miterlimit="10"/>
<path d="M103.909 74.7911C98.9401 88.4535 88.0374 99.3019 74.3534 104.226" stroke="#F1A605" stroke-width="2" stroke-miterlimit="10"/>
<path d="M74.3534 11.774C88.9274 16.9946 100.312 28.9168 104.799 43.8009" stroke="#F1A605" stroke-width="2" stroke-miterlimit="10"/>
<path d="M57.6656 17.7722C62.069 17.7722 65.6387 14.2082 65.6387 9.81176C65.6387 5.41533 62.069 1.85132 57.6656 1.85132C53.2622 1.85132 49.6926 5.41533 49.6926 9.81176C49.6926 14.2082 53.2622 17.7722 57.6656 17.7722Z" stroke="#F1A605" stroke-width="2" stroke-miterlimit="10"/>
<path d="M9.82725 67.1269C14.2306 67.1269 17.8003 63.5629 17.8003 59.1665C17.8003 54.7701 14.2306 51.2061 9.82725 51.2061C5.42385 51.2061 1.85419 54.7701 1.85419 59.1665C1.85419 63.5629 5.42385 67.1269 9.82725 67.1269Z" stroke="#F1A605" stroke-width="2" stroke-miterlimit="10"/>
<path d="M107.173 67.1269C111.576 67.1269 115.146 63.5629 115.146 59.1665C115.146 54.7701 111.576 51.2061 107.173 51.2061C102.769 51.2061 99.1997 54.7701 99.1997 59.1665C99.1997 63.5629 102.769 67.1269 107.173 67.1269Z" stroke="#F1A605" stroke-width="2" stroke-miterlimit="10"/>
<path d="M57.6656 115.186C62.069 115.186 65.6387 111.622 65.6387 107.225C65.6387 102.829 62.069 99.2649 57.6656 99.2649C53.2622 99.2649 49.6926 102.829 49.6926 107.225C49.6926 111.622 53.2622 115.186 57.6656 115.186Z" stroke="#F1A605" stroke-width="2" stroke-miterlimit="10"/>
</g>
<defs>
<clipPath id="clip0_287_83">
<rect width="117" height="117" fill="white"/>
</clipPath>
</defs>
</svg>
