<svg width="163" height="140" viewBox="0 0 163 140" fill="none" xmlns="http://www.w3.org/2000/svg">
<path d="M107.181 84.4912V123.675C107.181 130.193 101.847 135.498 95.2934 135.498H15.8174C9.26429 135.498 3.93033 130.193 3.93033 123.675V15.9007C3.93033 9.38274 9.26429 4.07739 15.8174 4.07739H95.3696C101.923 4.07739 107.257 9.38274 107.257 15.9007V44.5496" stroke="#F1A605" stroke-width="2" stroke-miterlimit="10"/>
<path d="M55.5174 84.4912C67.8479 84.4912 77.8438 74.5489 77.8438 62.2845C77.8438 50.0201 67.8479 40.0779 55.5174 40.0779C43.1868 40.0779 33.1909 50.0201 33.1909 62.2845C33.1909 74.5489 43.1868 84.4912 55.5174 84.4912Z" stroke="#F1A605" stroke-width="2" stroke-miterlimit="10"/>
<path d="M154.577 49.097C160.139 43.5643 159.53 34.3179 152.824 29.543C148.709 26.663 143.07 26.4356 138.803 29.0883C136.67 30.3767 135.07 32.1199 134.079 34.0905C132.174 37.8042 129.888 41.3664 126.916 44.3222L115.41 55.7666L129.736 70.0152L141.242 58.5709C144.213 55.615 147.795 53.3413 151.529 51.3707C152.595 50.7644 153.662 50.0823 154.577 49.097Z" stroke="#F1A605" stroke-width="2" stroke-miterlimit="10"/>
<path d="M27.9332 23.2524H83.1778" stroke="#F1A605" stroke-width="2" stroke-miterlimit="10"/>
<path d="M31.5907 101.317H79.5202" stroke="#F1A605" stroke-width="2" stroke-miterlimit="10"/>
<path d="M25.952 116.172H85.1589" stroke="#F1A605" stroke-width="2" stroke-miterlimit="10"/>
<path d="M144.621 84.5975L100.654 40.8664C99.3444 39.564 97.2215 39.564 95.9122 40.8663L88.8538 47.8869C87.5444 49.1892 87.5444 51.3007 88.8538 52.603L132.821 96.3341C134.13 97.6364 136.253 97.6364 137.562 96.3341L144.621 89.3136C145.93 88.0113 145.93 85.8998 144.621 84.5975Z" stroke="#F1A605" stroke-width="2" stroke-miterlimit="10"/>
<path d="M127.221 92.9798L124.021 96.163C122.573 97.603 120.287 97.7546 118.991 96.4662L88.7403 66.3773C87.4449 65.0888 87.5973 62.8151 89.0451 61.3751L92.2455 58.1919" stroke="#F1A605" stroke-width="2" stroke-miterlimit="10"/>
</svg>
