<svg width="136" height="139" viewBox="0 0 136 139" fill="none" xmlns="http://www.w3.org/2000/svg">
<path d="M67.9575 35.8264L67.9575 4.94519" stroke="#F1A605" stroke-width="2" stroke-miterlimit="10"/>
<path d="M67.9575 101.793V132.751V134.518" stroke="#F1A605" stroke-width="2" stroke-miterlimit="10"/>
<path d="M90.4575 24.4547L67.9575 3.75378L45.5122 24.4547" stroke="#F1A605" stroke-width="2" stroke-miterlimit="10"/>
<path d="M35.3232 71.2113L5.52133 71.2113" stroke="#F1A605" stroke-width="2" stroke-miterlimit="10"/>
<path d="M24.7093 48.5782L4.18008 71.2113L24.7093 93.8995" stroke="#F1A605" stroke-width="2" stroke-miterlimit="10"/>
<path d="M131.055 71.2113H99.983" stroke="#F1A605" stroke-width="2" stroke-miterlimit="10"/>
<path d="M111.206 48.5507L131.735 71.2389L111.206 93.872" stroke="#F1A605" stroke-width="2" stroke-miterlimit="10"/>
<path d="M90.5122 114.6L68.0122 135.301L45.567 114.6" stroke="#F1A605" stroke-width="2" stroke-miterlimit="10"/>
<path d="M55.7494 70.9353C56.1327 70.9353 56.7348 72.481 56.7348 72.481V72.8122C58.0487 78.1117 61.2786 82.4727 67.848 82.4727C74.4173 82.4727 78.0305 77.4492 79.5633 72.205C79.5633 71.7082 79.9465 70.8801 80.2202 70.9353C83.3407 71.653 83.8334 65.5255 83.8334 62.8758C83.8334 60.6125 81.8626 61.6613 80.7129 61.5509C82.0268 52.0009 78.5779 45.2109 68.1764 45.2109C57.775 45.2109 54.5451 52.0561 55.3115 61.4405C53.8334 61.1645 51.8626 61.4405 51.8626 63.9246C51.8626 66.5191 52.629 71.2665 55.6947 70.8801L55.7494 70.9353Z" stroke="#F1A605" stroke-width="2" stroke-miterlimit="10"/>
<path d="M92.702 91.7467C91.0596 87.8825 87.2275 85.1776 82.848 85.1776C82.848 85.1776 76.2786 84.5151 76.2786 84.1839V78.9949" stroke="#F1A605" stroke-width="2" stroke-miterlimit="10"/>
<path d="M59.91 78.9397V84.1839C59.91 84.5704 53.3954 85.1776 53.3954 85.1776C48.6874 85.1776 44.691 88.3241 43.2677 92.6299" stroke="#F1A605" stroke-width="2" stroke-miterlimit="10"/>
<path d="M67.9575 102.787C86.1889 102.787 100.968 87.884 100.968 69.5C100.968 51.116 86.1889 36.2129 67.9575 36.2129C49.726 36.2129 34.9465 51.116 34.9465 69.5C34.9465 87.884 49.726 102.787 67.9575 102.787Z" stroke="#F1A605" stroke-width="2" stroke-miterlimit="10"/>
</svg>
