<svg width="97" height="136" viewBox="0 0 97 136" fill="none" xmlns="http://www.w3.org/2000/svg">
<path d="M93.6667 13.6663C93.6667 7.96092 89 3.31702 83.2667 3.31702H13.7333C8.00001 3.31702 3.33334 7.96092 3.33334 13.6663V108.004C3.33334 113.709 8.00001 118.353 13.7333 118.353H83.3333C89.0667 118.353 93.7333 113.709 93.7333 108.004V13.6663H93.6667Z" stroke="#F1A605" stroke-width="2" stroke-miterlimit="10"/>
<path d="M3.33334 27.9961V122.334C3.33334 128.039 8.00001 132.683 13.7333 132.683H83.3333C89.0667 132.683 93.7333 128.039 93.7333 122.334V27.9961" stroke="#F1A605" stroke-width="2" stroke-miterlimit="10"/>
<path d="M48.4667 73.7053C59.2546 73.7053 68 65.0026 68 54.2673C68 43.5319 59.2546 34.8292 48.4667 34.8292C37.6787 34.8292 28.9333 43.5319 28.9333 54.2673C28.9333 65.0026 37.6787 73.7053 48.4667 73.7053Z" stroke="#F1A605" stroke-width="2" stroke-miterlimit="10"/>
<path d="M24.3333 20.1014H72.6667" stroke="#F1A605" stroke-width="2" stroke-miterlimit="10"/>
<path d="M27.5333 88.4331H69.4667" stroke="#F1A605" stroke-width="2" stroke-miterlimit="10"/>
<path d="M22.6 101.436H74.4" stroke="#F1A605" stroke-width="2" stroke-miterlimit="10"/>
</svg>
