<svg width="158" height="168" viewBox="0 0 158 168" fill="none" xmlns="http://www.w3.org/2000/svg">
<g clip-path="url(#clip0_146_2045)">
<path d="M145.788 37.5891C145.788 37.5891 138.55 37.5891 129.091 37.5891C128.393 37.5891 127.758 37.2055 127.377 36.6302L107.188 4.09135C106.807 3.51601 106.173 3.13245 105.474 3.13245H98.9988C97.6656 3.13245 96.7133 4.41098 97.0942 5.75345L105.474 35.032C105.855 36.3105 104.903 37.653 103.57 37.653C96.2689 37.653 88.4601 37.653 85.8572 37.653C85.2859 37.653 84.7145 37.3973 84.3336 36.9498L76.8423 28.3197C76.4614 27.8722 75.89 27.6165 75.3186 27.6165H68.8431C67.3194 27.6165 66.3036 29.2786 67.0655 30.621L75.89 44.8767C76.2074 45.516 76.2074 46.2831 75.89 46.8585L66.8115 61.1781C66.0497 62.5206 67.002 64.1827 68.5891 64.1827H75.0647C75.636 64.1827 76.2074 63.927 76.5883 63.4795L84.3336 54.6576C84.7145 54.2101 85.2859 53.9544 85.8572 53.9544C88.5236 53.9544 96.3324 53.9544 103.697 53.9544C105.03 53.9544 105.982 55.2329 105.601 56.5754L97.0942 85.4703C96.7133 86.7489 97.6656 88.0913 98.9988 88.0913H105.474C106.173 88.0913 106.807 87.7078 107.188 87.1324L127.631 54.9133C128.012 54.3379 128.647 53.9544 129.345 53.9544C138.677 53.9544 145.788 53.9544 145.788 53.9544C150.676 53.9544 154.676 50.758 154.676 45.8356C154.676 40.9133 150.676 37.5251 145.788 37.5251V37.5891Z" stroke="#F1A605" stroke-width="2" stroke-miterlimit="10"/>
<path d="M0.849945 152.018C12.4678 152.018 12.4678 164.804 24.0857 164.804C35.7036 164.804 35.7036 152.018 47.3214 152.018C58.9393 152.018 58.9393 164.804 70.5572 164.804C82.1751 164.804 82.1751 152.018 93.7929 152.018C105.411 152.018 105.411 164.804 117.029 164.804" stroke="#F1A605" stroke-width="2" stroke-miterlimit="10"/>
<path d="M25.2919 145.562L14.4994 119.224H119.378L105.03 145.562" stroke="#F1A605" stroke-width="2" stroke-miterlimit="10"/>
<path d="M90.6821 119.224L75.4456 92.6301H30.3708V119.224" stroke="#F1A605" stroke-width="2" stroke-miterlimit="10"/>
<path d="M42.8774 92.6301V70.3196H31.8309" stroke="#F1A605" stroke-width="2" stroke-miterlimit="10"/>
</g>
<defs>
<clipPath id="clip0_146_2045">
<rect width="157" height="168" fill="white" transform="translate(0.849945)"/>
</clipPath>
</defs>
</svg>
