<svg width="185" height="125" viewBox="0 0 185 125" fill="none" xmlns="http://www.w3.org/2000/svg">
<path d="M161.378 3.55225H23.6222C12.24 3.55225 3.01303 12.8095 3.01303 24.229V100.83C3.01303 112.249 12.24 121.506 23.6222 121.506H161.378C172.76 121.506 181.987 112.249 181.987 100.83V24.229C181.987 12.8095 172.76 3.55225 161.378 3.55225Z" stroke="#F1A605" stroke-width="2" stroke-miterlimit="10"/>
<path d="M42.7248 64.071C43.1466 64.071 43.8094 65.7639 43.8094 65.7639V66.1266C45.2557 71.9306 48.8111 76.7068 56.0423 76.7068C63.2736 76.7068 67.2508 71.2051 68.9381 65.4616C68.9381 64.9174 69.3599 64.0106 69.6612 64.071C73.0961 64.857 73.6384 58.1461 73.6384 55.2441C73.6384 52.7653 71.4691 53.914 70.2036 53.7931C71.6498 43.3338 67.8534 35.8975 56.4039 35.8975C44.9544 35.8975 41.399 43.3943 42.2427 53.6722C40.6156 53.3699 38.4463 53.6722 38.4463 56.3928C38.4463 59.2344 39.2899 64.4338 42.6645 64.0106L42.7248 64.071Z" stroke="#F1A605" stroke-width="2" stroke-miterlimit="10"/>
<path d="M83.4609 86.8638C81.6531 82.6317 77.4349 79.6693 72.614 79.6693C72.614 79.6693 65.3828 78.9438 65.3828 78.581V72.8979" stroke="#F1A605" stroke-width="2" stroke-miterlimit="10"/>
<path d="M47.3046 72.8374V78.5809C47.3046 79.0041 40.1336 79.6692 40.1336 79.6692C34.9511 79.6692 30.5521 83.1153 28.9854 87.8311" stroke="#F1A605" stroke-width="2" stroke-miterlimit="10"/>
<path d="M56.1629 98.9555C76.2313 98.9555 92.5 82.6334 92.5 62.4991C92.5 42.3648 76.2313 26.0427 56.1629 26.0427C36.0944 26.0427 19.8257 42.3648 19.8257 62.4991C19.8257 82.6334 36.0944 98.9555 56.1629 98.9555Z" stroke="#F1A605" stroke-width="2" stroke-miterlimit="10"/>
<path d="M111.663 33.9023H164.933" stroke="#F1A605" stroke-width="2" stroke-miterlimit="10"/>
<path d="M111.663 53.8535H164.933" stroke="#F1A605" stroke-width="2" stroke-miterlimit="10"/>
<path d="M111.663 73.8048H164.933" stroke="#F1A605" stroke-width="2" stroke-miterlimit="10"/>
<path d="M111.663 93.6956H164.933" stroke="#F1A605" stroke-width="2" stroke-miterlimit="10"/>
</svg>
